<mxfile host="65bd71144e" pages="1">
    <diagram id="yOtjCvt9NFVpBaILGM7R" name="PÃ¡gina-1">
        <mxGraphModel dx="8507" dy="3237" grid="1" gridSize="10" guides="1" tooltips="1" connect="1" arrows="1" fold="1" page="0" pageScale="1" pageWidth="827" pageHeight="1169" math="0" shadow="0">
            <root>
                <mxCell id="0"/>
                <mxCell id="1" parent="0"/>
                <mxCell id="221" style="rounded=0;orthogonalLoop=1;jettySize=auto;html=1;exitX=0.5;exitY=1;exitDx=0;exitDy=0;entryX=0.5;entryY=0;entryDx=0;entryDy=0;fontSize=36;endArrow=open;sourcePerimeterSpacing=8;targetPerimeterSpacing=8;fillColor=#dae8fc;strokeColor=#6c8ebf;strokeWidth=7;" parent="1" source="210" target="211" edge="1">
                    <mxGeometry relative="1" as="geometry"/>
                </mxCell>
                <mxCell id="210" value="&lt;font style=&quot;font-size: 36px;&quot;&gt;login.html&lt;/font&gt;" style="rounded=0;whiteSpace=wrap;html=1;fillColor=#FFB19E;" parent="1" vertex="1">
                    <mxGeometry x="-105" y="-1140" width="570" height="430" as="geometry"/>
                </mxCell>
                <mxCell id="213" style="rounded=0;orthogonalLoop=1;jettySize=auto;html=1;fontSize=36;endArrow=open;sourcePerimeterSpacing=8;targetPerimeterSpacing=8;fillColor=#dae8fc;strokeColor=#6c8ebf;strokeWidth=7;" parent="1" source="211" target="212" edge="1">
                    <mxGeometry relative="1" as="geometry"/>
                </mxCell>
                <mxCell id="217" style="rounded=0;orthogonalLoop=1;jettySize=auto;html=1;fontSize=36;endArrow=open;sourcePerimeterSpacing=8;targetPerimeterSpacing=8;fillColor=#dae8fc;strokeColor=#6c8ebf;strokeWidth=7;" parent="1" source="211" target="216" edge="1">
                    <mxGeometry relative="1" as="geometry"/>
                </mxCell>
                <mxCell id="220" style="rounded=0;orthogonalLoop=1;jettySize=auto;html=1;fontSize=36;endArrow=open;sourcePerimeterSpacing=8;targetPerimeterSpacing=8;fillColor=#dae8fc;strokeColor=#6c8ebf;strokeWidth=7;" parent="1" source="211" target="219" edge="1">
                    <mxGeometry relative="1" as="geometry"/>
                </mxCell>
                <mxCell id="234" style="edgeStyle=entityRelationEdgeStyle;html=1;exitX=1;exitY=0.5;exitDx=0;exitDy=0;entryX=0;entryY=0.5;entryDx=0;entryDy=0;fontSize=48;elbow=vertical;strokeColor=#d6b656;fillColor=#fff2cc;strokeWidth=6;endArrow=oval;endFill=1;startArrow=diamondThin;startFill=1;shape=link;" parent="1" source="211" target="231" edge="1">
                    <mxGeometry relative="1" as="geometry"/>
                </mxCell>
                <mxCell id="222" value="&lt;font style=&quot;font-size: 48px;&quot;&gt;header.html&lt;/font&gt;" style="rounded=0;whiteSpace=wrap;html=1;fillColor=#ADC0FF;" parent="1" vertex="1">
                    <mxGeometry x="-1850" y="-480" width="500" height="100" as="geometry"/>
                </mxCell>
                <mxCell id="226" value="&lt;font style=&quot;font-size: 48px;&quot;&gt;footer.html&lt;/font&gt;" style="rounded=0;whiteSpace=wrap;html=1;shadow=1;fillColor=#FFCF30;" parent="1" vertex="1">
                    <mxGeometry x="-1850" y="-320" width="500" height="100" as="geometry"/>
                </mxCell>
                <mxCell id="231" value="" style="shape=ext;double=1;whiteSpace=wrap;html=1;aspect=fixed;shadow=1;strokeColor=#206E47;fontSize=48;fillColor=#8ACF00;" parent="1" vertex="1">
                    <mxGeometry x="1530" y="-830" width="850" height="850" as="geometry"/>
                </mxCell>
                <mxCell id="235" value="" style="group" parent="1" vertex="1" connectable="0">
                    <mxGeometry x="-105" y="-440" width="570" height="430" as="geometry"/>
                </mxCell>
                <mxCell id="211" value="&lt;font style=&quot;font-size: 36px;&quot;&gt;index.html&lt;/font&gt;" style="rounded=0;whiteSpace=wrap;html=1;fillColor=#FFB19E;" parent="235" vertex="1">
                    <mxGeometry width="570" height="430" as="geometry"/>
                </mxCell>
                <mxCell id="230" value="&lt;font style=&quot;font-size: 48px;&quot;&gt;footer.html&lt;/font&gt;" style="rounded=0;whiteSpace=wrap;html=1;fillColor=#FFCF30;" parent="235" vertex="1">
                    <mxGeometry x="35" y="290" width="500" height="100" as="geometry"/>
                </mxCell>
                <mxCell id="236" value="" style="group" parent="1" vertex="1" connectable="0">
                    <mxGeometry x="830" y="440" width="570" height="430" as="geometry"/>
                </mxCell>
                <mxCell id="219" value="&lt;font style=&quot;font-size: 36px;&quot;&gt;orders.html&lt;br&gt;&lt;/font&gt;" style="rounded=0;whiteSpace=wrap;html=1;fontSize=36;fillColor=#FFB19E;" parent="236" vertex="1">
                    <mxGeometry width="570" height="430" as="geometry"/>
                </mxCell>
                <mxCell id="225" value="&lt;font style=&quot;font-size: 48px;&quot;&gt;header.html&lt;/font&gt;" style="rounded=0;whiteSpace=wrap;html=1;fillColor=#ADC0FF;" parent="236" vertex="1">
                    <mxGeometry x="35" y="20" width="500" height="100" as="geometry"/>
                </mxCell>
                <mxCell id="282" style="edgeStyle=none;html=1;exitX=0;exitY=0;exitDx=0;exitDy=0;entryX=0;entryY=1;entryDx=0;entryDy=0;" parent="236" source="229" target="225" edge="1">
                    <mxGeometry relative="1" as="geometry"/>
                </mxCell>
                <mxCell id="229" value="&lt;font style=&quot;font-size: 48px;&quot;&gt;footer.html&lt;/font&gt;" style="rounded=0;whiteSpace=wrap;html=1;fillColor=#FFCF30;" parent="236" vertex="1">
                    <mxGeometry x="35" y="310" width="500" height="100" as="geometry"/>
                </mxCell>
                <mxCell id="237" value="" style="group" parent="1" vertex="1" connectable="0">
                    <mxGeometry x="-110" y="440" width="570" height="430" as="geometry"/>
                </mxCell>
                <mxCell id="216" value="customers.html" style="rounded=0;whiteSpace=wrap;html=1;fontSize=36;fillColor=#FFB19E;" parent="237" vertex="1">
                    <mxGeometry width="570" height="430" as="geometry"/>
                </mxCell>
                <mxCell id="224" value="&lt;font style=&quot;font-size: 48px;&quot;&gt;header.html&lt;/font&gt;" style="rounded=0;whiteSpace=wrap;html=1;fillColor=#ADC0FF;" parent="237" vertex="1">
                    <mxGeometry x="40" y="20" width="500" height="100" as="geometry"/>
                </mxCell>
                <mxCell id="281" style="edgeStyle=none;html=1;exitX=0;exitY=0;exitDx=0;exitDy=0;entryX=0;entryY=1;entryDx=0;entryDy=0;" parent="237" source="228" target="224" edge="1">
                    <mxGeometry relative="1" as="geometry"/>
                </mxCell>
                <mxCell id="228" value="&lt;font style=&quot;font-size: 48px;&quot;&gt;footer.html&lt;/font&gt;" style="rounded=0;whiteSpace=wrap;html=1;fillColor=#FFCF30;" parent="237" vertex="1">
                    <mxGeometry x="40" y="310" width="500" height="100" as="geometry"/>
                </mxCell>
                <mxCell id="238" value="" style="group" parent="1" vertex="1" connectable="0">
                    <mxGeometry x="-1110" y="440" width="570" height="430" as="geometry"/>
                </mxCell>
                <mxCell id="212" value="articles.html" style="rounded=0;whiteSpace=wrap;html=1;fontSize=36;fillColor=#FFB19E;" parent="238" vertex="1">
                    <mxGeometry width="570" height="430" as="geometry"/>
                </mxCell>
                <mxCell id="223" value="&lt;font style=&quot;font-size: 48px;&quot;&gt;header.html&lt;/font&gt;" style="rounded=0;whiteSpace=wrap;html=1;fillColor=#ADC0FF;" parent="238" vertex="1">
                    <mxGeometry x="35" y="20" width="500" height="100" as="geometry"/>
                </mxCell>
                <mxCell id="280" style="edgeStyle=none;html=1;exitX=0;exitY=0;exitDx=0;exitDy=0;entryX=0;entryY=1;entryDx=0;entryDy=0;" parent="238" source="227" target="223" edge="1">
                    <mxGeometry relative="1" as="geometry"/>
                </mxCell>
                <mxCell id="227" value="&lt;font style=&quot;font-size: 48px;&quot;&gt;footer.html&lt;/font&gt;" style="rounded=0;whiteSpace=wrap;html=1;fillColor=#FFCF30;" parent="238" vertex="1">
                    <mxGeometry x="35" y="310" width="500" height="100" as="geometry"/>
                </mxCell>
                <mxCell id="240" value="1" style="ellipse;shape=doubleEllipse;whiteSpace=wrap;html=1;aspect=fixed;shadow=1;strokeColor=#206E47;fontSize=48;fillColor=#FFB19E;" parent="1" vertex="1">
                    <mxGeometry x="1590" y="-730" width="120" height="120" as="geometry"/>
                </mxCell>
                <mxCell id="242" value="2" style="ellipse;shape=doubleEllipse;whiteSpace=wrap;html=1;aspect=fixed;shadow=1;strokeColor=#206E47;fontSize=48;fillColor=#FFB19E;" parent="1" vertex="1">
                    <mxGeometry x="1590" y="-560" width="120" height="120" as="geometry"/>
                </mxCell>
                <mxCell id="243" value="3" style="ellipse;shape=doubleEllipse;whiteSpace=wrap;html=1;aspect=fixed;shadow=1;strokeColor=#206E47;fontSize=48;fillColor=#FFB19E;" parent="1" vertex="1">
                    <mxGeometry x="1590" y="-390" width="120" height="120" as="geometry"/>
                </mxCell>
                <mxCell id="244" value="1" style="ellipse;shape=doubleEllipse;whiteSpace=wrap;html=1;aspect=fixed;shadow=1;strokeColor=#206E47;fontSize=48;fillColor=#FFB19E;" parent="1" vertex="1">
                    <mxGeometry x="-1060" y="330" width="80" height="80" as="geometry"/>
                </mxCell>
                <mxCell id="245" value="2" style="ellipse;shape=doubleEllipse;whiteSpace=wrap;html=1;aspect=fixed;shadow=1;strokeColor=#206E47;fontSize=48;fillColor=#FFB19E;" parent="1" vertex="1">
                    <mxGeometry x="-40" y="330" width="80" height="80" as="geometry"/>
                </mxCell>
                <mxCell id="246" value="3" style="ellipse;shape=doubleEllipse;whiteSpace=wrap;html=1;aspect=fixed;shadow=1;strokeColor=#206E47;fontSize=48;fillColor=#FFB19E;" parent="1" vertex="1">
                    <mxGeometry x="920" y="330" width="80" height="80" as="geometry"/>
                </mxCell>
                <mxCell id="254" value="user picture" style="ellipse;shape=doubleEllipse;whiteSpace=wrap;html=1;aspect=fixed;shadow=1;strokeColor=#206E47;fontSize=48;fillColor=#D0B5FF;" parent="1" vertex="1">
                    <mxGeometry x="2150" y="-820" width="200" height="200" as="geometry"/>
                </mxCell>
                <mxCell id="258" value="username" style="shape=ext;double=1;rounded=0;whiteSpace=wrap;html=1;shadow=1;strokeColor=#206E47;fontSize=48;fillColor=#D0B5FF;" parent="1" vertex="1">
                    <mxGeometry x="2130" y="-640" width="240" height="50" as="geometry"/>
                </mxCell>
                <mxCell id="260" style="edgeStyle=entityRelationEdgeStyle;html=1;exitX=1;exitY=0.5;exitDx=0;exitDy=0;strokeColor=#000000;fontSize=48;elbow=vertical;" parent="1" source="259" target="261" edge="1">
                    <mxGeometry relative="1" as="geometry">
                        <mxPoint x="1940" y="-1164" as="targetPoint"/>
                    </mxGeometry>
                </mxCell>
                <mxCell id="259" value="" style="ellipse;shape=doubleEllipse;whiteSpace=wrap;html=1;aspect=fixed;shadow=1;strokeColor=#206E47;fontSize=48;fillColor=#D0B5FF;" parent="1" vertex="1">
                    <mxGeometry x="-1930" y="-862.5" width="173" height="173" as="geometry"/>
                </mxCell>
                <mxCell id="261" value="to implement in future" style="html=1;whiteSpace=wrap;container=1;recursiveResize=0;collapsible=0;shadow=1;strokeColor=#206E47;fontSize=48;fillColor=#D0B5FF;" parent="1" vertex="1">
                    <mxGeometry x="-1600" y="-862.5" width="410" height="250" as="geometry"/>
                </mxCell>
                <mxCell id="262" value="" style="triangle;html=1;whiteSpace=wrap;shadow=1;strokeColor=#206E47;fontSize=48;fillColor=#D0B5FF;" parent="261" vertex="1">
                    <mxGeometry x="20" y="20" width="20" height="30" as="geometry"/>
                </mxCell>
                <mxCell id="266" style="rounded=0;orthogonalLoop=1;jettySize=auto;html=1;exitX=1;exitY=0.75;exitDx=0;exitDy=0;entryX=0;entryY=0.75;entryDx=0;entryDy=0;endArrow=classic;endFill=0;strokeWidth=7;fillColor=#dae8fc;strokeColor=#6c8ebf;" parent="1" source="212" target="216" edge="1">
                    <mxGeometry relative="1" as="geometry"/>
                </mxCell>
                <mxCell id="267" style="rounded=0;orthogonalLoop=1;jettySize=auto;html=1;exitX=0;exitY=0.5;exitDx=0;exitDy=0;entryX=1;entryY=0.5;entryDx=0;entryDy=0;endArrow=classic;endFill=0;strokeWidth=7;fillColor=#dae8fc;strokeColor=#6c8ebf;" parent="1" source="216" target="212" edge="1">
                    <mxGeometry relative="1" as="geometry">
                        <mxPoint x="-110" y="800" as="sourcePoint"/>
                        <mxPoint x="-540" y="800" as="targetPoint"/>
                    </mxGeometry>
                </mxCell>
                <mxCell id="268" style="rounded=0;orthogonalLoop=1;jettySize=auto;html=1;exitX=0;exitY=0.75;exitDx=0;exitDy=0;endArrow=classic;endFill=0;strokeWidth=7;entryX=1;entryY=0.75;entryDx=0;entryDy=0;fillColor=#dae8fc;strokeColor=#6c8ebf;" parent="1" source="219" target="216" edge="1">
                    <mxGeometry relative="1" as="geometry">
                        <mxPoint x="840" y="730" as="sourcePoint"/>
                        <mxPoint x="460" y="730" as="targetPoint"/>
                    </mxGeometry>
                </mxCell>
                <mxCell id="269" style="rounded=0;orthogonalLoop=1;jettySize=auto;html=1;exitX=1;exitY=0.5;exitDx=0;exitDy=0;endArrow=classic;endFill=0;strokeWidth=7;entryX=0;entryY=0.5;entryDx=0;entryDy=0;fillColor=#dae8fc;strokeColor=#6c8ebf;" parent="1" source="216" target="219" edge="1">
                    <mxGeometry relative="1" as="geometry">
                        <mxPoint x="465" y="710" as="sourcePoint"/>
                        <mxPoint x="835" y="710" as="targetPoint"/>
                    </mxGeometry>
                </mxCell>
                <mxCell id="270" style="rounded=0;orthogonalLoop=1;jettySize=auto;html=1;exitX=0.75;exitY=1;exitDx=0;exitDy=0;endArrow=classic;endFill=0;strokeWidth=7;entryX=0.25;entryY=1;entryDx=0;entryDy=0;fillColor=#dae8fc;strokeColor=#6c8ebf;" parent="1" source="212" target="219" edge="1">
                    <mxGeometry relative="1" as="geometry">
                        <mxPoint x="-40" y="1230" as="sourcePoint"/>
                        <mxPoint x="330" y="1230" as="targetPoint"/>
                        <Array as="points">
                            <mxPoint x="150" y="1000"/>
                        </Array>
                    </mxGeometry>
                </mxCell>
                <mxCell id="271" style="rounded=0;orthogonalLoop=1;jettySize=auto;html=1;exitX=0.5;exitY=1;exitDx=0;exitDy=0;endArrow=classic;endFill=0;strokeWidth=7;entryX=0.5;entryY=1;entryDx=0;entryDy=0;fillColor=#dae8fc;strokeColor=#6c8ebf;" parent="1" source="219" target="212" edge="1">
                    <mxGeometry relative="1" as="geometry">
                        <mxPoint x="960" y="929.9999999999995" as="sourcePoint"/>
                        <mxPoint x="-695" y="929.9999999999995" as="targetPoint"/>
                        <Array as="points">
                            <mxPoint x="150" y="1050"/>
                        </Array>
                    </mxGeometry>
                </mxCell>
                <mxCell id="272" style="rounded=0;orthogonalLoop=1;jettySize=auto;html=1;exitX=1;exitY=0.75;exitDx=0;exitDy=0;endArrow=classic;endFill=0;strokeWidth=7;fillColor=#dae8fc;strokeColor=#6c8ebf;" parent="1" edge="1">
                    <mxGeometry relative="1" as="geometry">
                        <mxPoint x="-1770" y="-61.000000000000455" as="sourcePoint"/>
                        <mxPoint x="-1660" y="-140" as="targetPoint"/>
                    </mxGeometry>
                </mxCell>
                <mxCell id="273" value="&lt;span style=&quot;font-size: 32px&quot;&gt;HREF TEMPLATE DIRECTION&lt;/span&gt;" style="text;html=1;strokeColor=none;fillColor=none;align=center;verticalAlign=middle;whiteSpace=wrap;rounded=0;" parent="1" vertex="1">
                    <mxGeometry x="-1635" y="-160" width="150" height="100" as="geometry"/>
                </mxCell>
                <mxCell id="274" style="edgeStyle=entityRelationEdgeStyle;html=1;exitX=1;exitY=0.5;exitDx=0;exitDy=0;fontSize=48;elbow=vertical;strokeColor=#d6b656;fillColor=#fff2cc;strokeWidth=6;endArrow=oval;endFill=1;startArrow=diamondThin;startFill=1;shape=link;width=4.2857142857142865;" parent="1" edge="1">
                    <mxGeometry relative="1" as="geometry">
                        <mxPoint x="-1810" y="100" as="sourcePoint"/>
                        <mxPoint x="-1648" y="20" as="targetPoint"/>
                    </mxGeometry>
                </mxCell>
                <mxCell id="276" value="&lt;span style=&quot;font-size: 32px&quot;&gt;HTML EXAMPLE&lt;/span&gt;" style="text;html=1;strokeColor=none;fillColor=none;align=center;verticalAlign=middle;whiteSpace=wrap;rounded=0;" parent="1" vertex="1">
                    <mxGeometry x="-1635" width="150" height="100" as="geometry"/>
                </mxCell>
                <mxCell id="279" value="" style="group" parent="1" vertex="1" connectable="0">
                    <mxGeometry x="-1800" y="560" width="500" height="230" as="geometry"/>
                </mxCell>
                <mxCell id="277" value="&lt;font style=&quot;font-size: 48px;&quot;&gt;header.html&lt;/font&gt;" style="rounded=0;whiteSpace=wrap;html=1;fillColor=#ADC0FF;" parent="279" vertex="1">
                    <mxGeometry width="500" height="230" as="geometry"/>
                </mxCell>
                <mxCell id="278" value="&lt;font style=&quot;font-size: 48px;&quot;&gt;footer.html&lt;/font&gt;" style="rounded=0;whiteSpace=wrap;html=1;shadow=1;fillColor=#FFCF30;" parent="279" vertex="1">
                    <mxGeometry x="10" y="150" width="470" height="70" as="geometry"/>
                </mxCell>
                <mxCell id="283" value="&lt;font style=&quot;font-size: 48px;&quot;&gt;footer.html&lt;/font&gt;" style="rounded=0;whiteSpace=wrap;html=1;shadow=1;fillColor=#FFCF30;" parent="1" vertex="1">
                    <mxGeometry x="-3310" y="-270" width="500" height="100" as="geometry"/>
                </mxCell>
                <mxCell id="284" value="&lt;font style=&quot;font-size: 48px;&quot;&gt;header.html&lt;/font&gt;" style="rounded=0;whiteSpace=wrap;html=1;fillColor=#ADC0FF;" parent="1" vertex="1">
                    <mxGeometry x="-3620" y="30" width="500" height="100" as="geometry"/>
                </mxCell>
                <mxCell id="285" value="" style="shape=flexArrow;endArrow=classic;html=1;exitX=0.5;exitY=0;exitDx=0;exitDy=0;" parent="1" source="284" edge="1">
                    <mxGeometry width="50" height="50" relative="1" as="geometry">
                        <mxPoint x="-3360" y="10" as="sourcePoint"/>
                        <mxPoint x="-3270" y="-170" as="targetPoint"/>
                    </mxGeometry>
                </mxCell>
                <mxCell id="286" value="" style="group" parent="1" vertex="1" connectable="0">
                    <mxGeometry x="-3655" y="300" width="570" height="430" as="geometry"/>
                </mxCell>
                <mxCell id="287" value="template.html" style="rounded=0;whiteSpace=wrap;html=1;fontSize=36;fillColor=#FFB19E;" parent="286" vertex="1">
                    <mxGeometry width="570" height="430" as="geometry"/>
                </mxCell>
                <mxCell id="291" value="" style="group" parent="1" vertex="1" connectable="0">
                    <mxGeometry x="-2870" y="-85" width="570" height="430" as="geometry"/>
                </mxCell>
                <mxCell id="292" value="template.html" style="rounded=0;whiteSpace=wrap;html=1;fontSize=36;fillColor=#FFB19E;" parent="291" vertex="1">
                    <mxGeometry x="-40" y="70" width="570" height="430" as="geometry"/>
                </mxCell>
                <mxCell id="294" value="" style="shape=flexArrow;endArrow=classic;html=1;exitX=0.5;exitY=0;exitDx=0;exitDy=0;exitPerimeter=0;" parent="1" source="287" edge="1">
                    <mxGeometry width="50" height="50" relative="1" as="geometry">
                        <mxPoint x="-3370" y="280" as="sourcePoint"/>
                        <mxPoint x="-3370" y="130" as="targetPoint"/>
                    </mxGeometry>
                </mxCell>
                <mxCell id="293" value="" style="shape=flexArrow;endArrow=classic;html=1;entryX=0.91;entryY=1.05;entryDx=0;entryDy=0;entryPerimeter=0;exitX=0.25;exitY=0;exitDx=0;exitDy=0;" parent="1" source="292" target="283" edge="1">
                    <mxGeometry width="50" height="50" relative="1" as="geometry">
                        <mxPoint x="-2770" as="sourcePoint"/>
                        <mxPoint x="-2930" y="-160" as="targetPoint"/>
                    </mxGeometry>
                </mxCell>
                <mxCell id="295" value="&lt;font style=&quot;font-size: 47px&quot;&gt;INHERET&lt;br&gt;STATUS&lt;br&gt;&lt;/font&gt;" style="text;html=1;strokeColor=#d6b656;fillColor=#fff2cc;align=center;verticalAlign=middle;whiteSpace=wrap;rounded=0;" parent="1" vertex="1">
                    <mxGeometry x="-3200" y="-515" width="260" height="170" as="geometry"/>
                </mxCell>
            </root>
        </mxGraphModel>
    </diagram>
</mxfile>